<svg xmlns="http://www.w3.org/2000/svg" xmlns:xlink="http://www.w3.org/1999/xlink" width="1080" zoomAndPan="magnify" viewBox="0 0 810 404.99999" height="540" preserveAspectRatio="xMidYMid meet" version="1.0"><defs><g/></defs><g fill="#000000" fill-opacity="1"><g transform="translate(1.540665, 209.712891)"><g><path d="M 110.671875 -65.65625 C 118.085938 -62.90625 123.828125 -58.894531 127.890625 -53.625 C 131.960938 -48.363281 134 -42.03125 134 -34.625 C 134 -23.613281 129.453125 -15.085938 120.359375 -9.046875 C 111.273438 -3.015625 98.117188 0 80.890625 0 L 10.21875 0 L 10.21875 -125.5625 L 77.3125 -125.5625 C 94.050781 -125.5625 106.695312 -122.570312 115.25 -116.59375 C 123.800781 -110.613281 128.078125 -102.660156 128.078125 -92.734375 C 128.078125 -86.878906 126.609375 -81.617188 123.671875 -76.953125 C 120.742188 -72.285156 116.410156 -68.519531 110.671875 -65.65625 Z M 51.84375 -95.96875 L 51.84375 -77.3125 L 71.578125 -77.3125 C 80.773438 -77.3125 85.375 -80.421875 85.375 -86.640625 C 85.375 -92.859375 80.773438 -95.96875 71.578125 -95.96875 Z M 77.3125 -29.59375 C 86.632812 -29.59375 91.296875 -32.882812 91.296875 -39.46875 C 91.296875 -46.039062 86.632812 -49.328125 77.3125 -49.328125 L 51.84375 -49.328125 L 51.84375 -29.59375 Z M 77.3125 -29.59375 "/></g></g></g><g fill="#000000" fill-opacity="1"><g transform="translate(140.196014, 209.712891)"><g><path d="M 95.78125 -21.890625 L 48.078125 -21.890625 L 39.640625 0 L -3.40625 0 L 51.484375 -125.5625 L 93.09375 -125.5625 L 147.984375 0 L 104.21875 0 Z M 84.125 -52.375 L 71.921875 -83.953125 L 59.734375 -52.375 Z M 84.125 -52.375 "/></g></g></g><g fill="#000000" fill-opacity="1"><g transform="translate(284.770682, 209.712891)"><g><path d="M 57.046875 2.875 C 46.640625 2.875 36.503906 1.707031 26.640625 -0.625 C 16.773438 -2.957031 8.671875 -6.097656 2.328125 -10.046875 L 15.96875 -40.890625 C 21.945312 -37.429688 28.640625 -34.65625 36.046875 -32.5625 C 43.460938 -30.46875 50.582031 -29.421875 57.40625 -29.421875 C 63.257812 -29.421875 67.441406 -29.988281 69.953125 -31.125 C 72.460938 -32.257812 73.71875 -33.960938 73.71875 -36.234375 C 73.71875 -38.867188 72.070312 -40.84375 68.78125 -42.15625 C 65.5 -43.46875 60.09375 -44.898438 52.5625 -46.453125 C 42.875 -48.484375 34.800781 -50.664062 28.34375 -53 C 21.882812 -55.332031 16.265625 -59.160156 11.484375 -64.484375 C 6.703125 -69.804688 4.3125 -77.007812 4.3125 -86.09375 C 4.3125 -93.988281 6.519531 -101.164062 10.9375 -107.625 C 15.363281 -114.082031 21.972656 -119.164062 30.765625 -122.875 C 39.554688 -126.582031 50.226562 -128.4375 62.78125 -128.4375 C 71.394531 -128.4375 79.851562 -127.507812 88.15625 -125.65625 C 96.46875 -123.800781 103.796875 -121.078125 110.140625 -117.484375 L 97.40625 -86.8125 C 85.082031 -93.03125 73.421875 -96.140625 62.421875 -96.140625 C 51.535156 -96.140625 46.09375 -93.507812 46.09375 -88.25 C 46.09375 -85.738281 47.707031 -83.851562 50.9375 -82.59375 C 54.164062 -81.34375 59.488281 -80 66.90625 -78.5625 C 76.46875 -76.769531 84.535156 -74.707031 91.109375 -72.375 C 97.691406 -70.039062 103.40625 -66.242188 108.25 -60.984375 C 113.09375 -55.722656 115.515625 -48.550781 115.515625 -39.46875 C 115.515625 -31.570312 113.300781 -24.425781 108.875 -18.03125 C 104.457031 -11.632812 97.851562 -6.550781 89.0625 -2.78125 C 80.269531 0.988281 69.597656 2.875 57.046875 2.875 Z M 57.046875 2.875 "/></g></g></g><g fill="#000000" fill-opacity="1"><g transform="translate(402.618755, 209.712891)"><g><path d="M 134 -125.5625 L 134 0 L 91.65625 0 L 91.65625 -46.28125 L 52.5625 -46.28125 L 52.5625 0 L 10.21875 0 L 10.21875 -125.5625 L 52.5625 -125.5625 L 52.5625 -81.078125 L 91.65625 -81.078125 L 91.65625 -125.5625 Z M 134 -125.5625 "/></g></g></g><g fill="#000000" fill-opacity="1"><g transform="translate(546.834657, 209.712891)"><g><path d="M 114.625 -31.921875 L 114.625 0 L 10.21875 0 L 10.21875 -125.5625 L 112.28125 -125.5625 L 112.28125 -93.640625 L 51.84375 -93.640625 L 51.84375 -78.921875 L 104.9375 -78.921875 L 104.9375 -48.4375 L 51.84375 -48.4375 L 51.84375 -31.921875 Z M 114.625 -31.921875 "/></g></g></g><g fill="#000000" fill-opacity="1"><g transform="translate(667.552696, 209.712891)"><g><path d="M 64.03125 -31.5625 L 52.5625 -31.5625 L 52.5625 0 L 10.21875 0 L 10.21875 -125.5625 L 70.671875 -125.5625 C 82.273438 -125.5625 92.378906 -123.644531 100.984375 -119.8125 C 109.597656 -115.988281 116.234375 -110.488281 120.890625 -103.3125 C 125.554688 -96.144531 127.890625 -87.773438 127.890625 -78.203125 C 127.890625 -69.234375 125.859375 -61.398438 121.796875 -54.703125 C 117.734375 -48.015625 111.875 -42.695312 104.21875 -38.75 L 130.578125 0 L 85.375 0 Z M 85.203125 -78.203125 C 85.203125 -82.867188 83.765625 -86.488281 80.890625 -89.0625 C 78.023438 -91.632812 73.722656 -92.921875 67.984375 -92.921875 L 52.5625 -92.921875 L 52.5625 -63.5 L 67.984375 -63.5 C 73.722656 -63.5 78.023438 -64.785156 80.890625 -67.359375 C 83.765625 -69.929688 85.203125 -73.546875 85.203125 -78.203125 Z M 85.203125 -78.203125 "/></g></g></g><g fill="#000000" fill-opacity="1"><g transform="translate(39.455448, 266.723486)"><g><path d="M 0.96875 -8 L 0.96875 -9.921875 L 13.71875 -15.59375 L 13.71875 -13.8125 L 2.921875 -9.0625 L 13.71875 -4.265625 L 13.71875 -2.4375 Z M 0.96875 -8 "/></g></g></g><g fill="#000000" fill-opacity="1"><g transform="translate(77.907204, 266.723486)"><g><path d="M 1.578125 -0.953125 C 2.242188 -0.960938 2.71875 -1.109375 3 -1.390625 C 3.289062 -1.679688 3.453125 -2.023438 3.484375 -2.421875 C 3.523438 -2.816406 3.546875 -3.5 3.546875 -4.46875 L 3.546875 -16.84375 C 3.546875 -17.644531 3.578125 -18.332031 3.640625 -18.90625 L 1.578125 -18.796875 L 1.578125 -20.0625 L 8.03125 -20.0625 L 8.03125 -19.109375 C 7.351562 -19.085938 6.867188 -18.929688 6.578125 -18.640625 C 6.296875 -18.359375 6.132812 -18.019531 6.09375 -17.625 C 6.0625 -17.238281 6.046875 -16.5625 6.046875 -15.59375 L 6.046875 -3.296875 C 6.046875 -2.304688 6.015625 -1.5625 5.953125 -1.0625 L 11.3125 -1.140625 C 12.539062 -1.160156 13.457031 -1.546875 14.0625 -2.296875 C 14.675781 -3.054688 14.984375 -4.269531 14.984375 -5.9375 L 15.96875 -5.9375 L 15.796875 0 L 1.578125 0 Z M 1.578125 -0.953125 "/></g></g></g><g fill="#000000" fill-opacity="1"><g transform="translate(117.390361, 266.723486)"><g><path d="M 1.578125 -0.953125 C 2.242188 -0.960938 2.71875 -1.109375 3 -1.390625 C 3.289062 -1.679688 3.453125 -2.023438 3.484375 -2.421875 C 3.523438 -2.816406 3.546875 -3.5 3.546875 -4.46875 L 3.546875 -16.84375 C 3.546875 -17.644531 3.578125 -18.332031 3.640625 -18.90625 L 1.578125 -18.796875 L 1.578125 -20.0625 L 15.359375 -20.0625 L 15.5 -15.046875 L 14.5625 -15.046875 C 14.5625 -16.609375 14.21875 -17.675781 13.53125 -18.25 C 12.851562 -18.820312 11.90625 -19.09375 10.6875 -19.0625 L 8.21875 -19 C 7.53125 -18.976562 7.035156 -18.847656 6.734375 -18.609375 C 6.429688 -18.367188 6.238281 -18.035156 6.15625 -17.609375 C 6.082031 -17.179688 6.046875 -16.507812 6.046875 -15.59375 L 6.046875 -11 L 11.4375 -10.96875 L 11.234375 -13.4375 L 12.5 -13.4375 L 12.5 -7.421875 L 11.546875 -7.421875 C 11.546875 -8.128906 11.457031 -8.664062 11.28125 -9.03125 C 11.113281 -9.40625 10.851562 -9.65625 10.5 -9.78125 C 10.144531 -9.90625 9.65625 -9.96875 9.03125 -9.96875 L 8.140625 -9.9375 L 6.046875 -9.859375 L 6.046875 -3.296875 C 6.046875 -2.304688 6.015625 -1.5625 5.953125 -1.0625 L 11.4375 -1.140625 C 12.769531 -1.160156 13.789062 -1.5 14.5 -2.15625 C 15.207031 -2.820312 15.5625 -3.96875 15.5625 -5.59375 L 16.53125 -5.59375 L 16.359375 0 L 1.578125 0 Z M 1.578125 -0.953125 "/></g></g></g><g fill="#000000" fill-opacity="1"><g transform="translate(158.134125, 266.723486)"><g><path d="M 5.953125 -0.953125 C 6.773438 -0.984375 7.304688 -1.207031 7.546875 -1.625 C 7.785156 -2.050781 7.90625 -2.703125 7.90625 -3.578125 L 7.90625 -4.46875 L 7.9375 -19 L 4.984375 -18.96875 C 3.796875 -18.96875 2.945312 -18.570312 2.4375 -17.78125 C 1.9375 -16.988281 1.6875 -15.734375 1.6875 -14.015625 L 0.625 -14.015625 L 0.796875 -20.0625 L 17.515625 -20.0625 L 17.6875 -14.015625 L 16.59375 -14.015625 C 16.570312 -15.210938 16.453125 -16.171875 16.234375 -16.890625 C 16.015625 -17.609375 15.640625 -18.144531 15.109375 -18.5 C 14.585938 -18.851562 13.835938 -19.03125 12.859375 -19.03125 L 10.4375 -19.03125 L 10.40625 -3.40625 C 10.40625 -2.394531 10.375 -1.640625 10.3125 -1.140625 L 12.6875 -1.265625 L 12.6875 0 L 5.953125 0 Z M 5.953125 -0.953125 "/></g></g></g><g fill="#000000" fill-opacity="1"><g transform="translate(199.393589, 266.723486)"><g><path d="M 1.78125 -20.515625 L 4.1875 -20.515625 L 3.921875 -14.0625 L 2.03125 -14.0625 Z M 1.78125 -20.515625 "/></g></g></g><g fill="#000000" fill-opacity="1"><g transform="translate(228.276213, 266.723486)"><g><path d="M 8.28125 0.453125 C 7.382812 0.453125 6.484375 0.328125 5.578125 0.078125 C 4.671875 -0.160156 3.875 -0.519531 3.1875 -1 L 3.328125 0.234375 L 1.828125 0.234375 L 1.65625 -5.875 L 2.78125 -5.875 C 2.875 -4.226562 3.4375 -2.960938 4.46875 -2.078125 C 5.5 -1.191406 6.804688 -0.75 8.390625 -0.75 C 9.554688 -0.75 10.535156 -1.066406 11.328125 -1.703125 C 12.117188 -2.347656 12.515625 -3.222656 12.515625 -4.328125 C 12.515625 -5.148438 12.289062 -5.851562 11.84375 -6.4375 C 11.394531 -7.019531 10.84375 -7.503906 10.1875 -7.890625 C 9.53125 -8.285156 8.640625 -8.738281 7.515625 -9.25 C 6.234375 -9.863281 5.210938 -10.398438 4.453125 -10.859375 C 3.703125 -11.316406 3.054688 -11.921875 2.515625 -12.671875 C 1.984375 -13.429688 1.71875 -14.363281 1.71875 -15.46875 C 1.71875 -16.238281 1.894531 -17.003906 2.25 -17.765625 C 2.601562 -18.523438 3.210938 -19.171875 4.078125 -19.703125 C 4.953125 -20.242188 6.101562 -20.515625 7.53125 -20.515625 C 8.394531 -20.515625 9.257812 -20.40625 10.125 -20.1875 C 11 -19.96875 11.796875 -19.59375 12.515625 -19.0625 L 12.40625 -20.28125 L 13.875 -20.28125 L 13.875 -13.984375 L 12.84375 -13.984375 C 12.738281 -15.492188 12.253906 -16.769531 11.390625 -17.8125 C 10.523438 -18.851562 9.304688 -19.375 7.734375 -19.375 C 6.585938 -19.375 5.6875 -19.050781 5.03125 -18.40625 C 4.382812 -17.769531 4.0625 -16.972656 4.0625 -16.015625 C 4.0625 -15.253906 4.28125 -14.59375 4.71875 -14.03125 C 5.164062 -13.476562 5.703125 -13.019531 6.328125 -12.65625 C 6.960938 -12.300781 7.851562 -11.851562 9 -11.3125 C 10.300781 -10.726562 11.347656 -10.195312 12.140625 -9.71875 C 12.929688 -9.238281 13.601562 -8.609375 14.15625 -7.828125 C 14.707031 -7.054688 14.984375 -6.109375 14.984375 -4.984375 C 14.984375 -3.910156 14.71875 -2.960938 14.1875 -2.140625 C 13.664062 -1.328125 12.898438 -0.691406 11.890625 -0.234375 C 10.878906 0.222656 9.675781 0.453125 8.28125 0.453125 Z M 8.28125 0.453125 "/></g></g></g><g fill="#000000" fill-opacity="1"><g transform="translate(267.444225, 266.723486)"><g/></g></g><g fill="#000000" fill-opacity="1"><g transform="translate(297.902619, 266.723486)"><g><path d="M 11.0625 0.453125 C 9.1875 0.453125 7.507812 0.00390625 6.03125 -0.890625 C 4.550781 -1.785156 3.394531 -3.003906 2.5625 -4.546875 C 1.726562 -6.097656 1.3125 -7.820312 1.3125 -9.71875 C 1.3125 -11.582031 1.6875 -13.335938 2.4375 -14.984375 C 3.195312 -16.628906 4.328125 -17.960938 5.828125 -18.984375 C 7.328125 -20.003906 9.140625 -20.515625 11.265625 -20.515625 C 13.367188 -20.515625 15.296875 -19.929688 17.046875 -18.765625 L 16.90625 -20.3125 L 18.453125 -20.3125 L 18.453125 -13.671875 L 17.421875 -13.671875 C 17.234375 -15.441406 16.609375 -16.828125 15.546875 -17.828125 C 14.484375 -18.835938 13.125 -19.34375 11.46875 -19.34375 C 10.101562 -19.34375 8.863281 -18.960938 7.75 -18.203125 C 6.632812 -17.453125 5.75 -16.378906 5.09375 -14.984375 C 4.445312 -13.585938 4.125 -11.972656 4.125 -10.140625 C 4.125 -8.390625 4.46875 -6.820312 5.15625 -5.4375 C 5.84375 -4.050781 6.769531 -2.96875 7.9375 -2.1875 C 9.101562 -1.414062 10.394531 -1.03125 11.8125 -1.03125 C 13.082031 -1.03125 14.3125 -1.316406 15.5 -1.890625 C 16.6875 -2.460938 17.660156 -3.273438 18.421875 -4.328125 L 19.171875 -3.71875 C 18.066406 -2.175781 16.796875 -1.09375 15.359375 -0.46875 C 13.921875 0.144531 12.488281 0.453125 11.0625 0.453125 Z M 11.0625 0.453125 "/></g></g></g><g fill="#000000" fill-opacity="1"><g transform="translate(340.852431, 266.723486)"><g><path d="M 11.515625 0.453125 C 9.222656 0.453125 7.3125 -0.0507812 5.78125 -1.0625 C 4.257812 -2.070312 3.132812 -3.375 2.40625 -4.96875 C 1.675781 -6.5625 1.3125 -8.25 1.3125 -10.03125 C 1.3125 -11.726562 1.6875 -13.378906 2.4375 -14.984375 C 3.195312 -16.585938 4.328125 -17.910156 5.828125 -18.953125 C 7.328125 -19.992188 9.148438 -20.515625 11.296875 -20.515625 C 13.492188 -20.515625 15.359375 -19.992188 16.890625 -18.953125 C 18.429688 -17.910156 19.582031 -16.585938 20.34375 -14.984375 C 21.101562 -13.378906 21.484375 -11.726562 21.484375 -10.03125 C 21.484375 -8.351562 21.109375 -6.707031 20.359375 -5.09375 C 19.609375 -3.476562 18.484375 -2.148438 16.984375 -1.109375 C 15.484375 -0.0664062 13.660156 0.453125 11.515625 0.453125 Z M 11.578125 -0.71875 C 13.066406 -0.71875 14.34375 -1.140625 15.40625 -1.984375 C 16.46875 -2.835938 17.269531 -3.929688 17.8125 -5.265625 C 18.351562 -6.609375 18.625 -8.015625 18.625 -9.484375 C 18.625 -11.109375 18.328125 -12.679688 17.734375 -14.203125 C 17.140625 -15.722656 16.28125 -16.960938 15.15625 -17.921875 C 14.03125 -18.890625 12.710938 -19.375 11.203125 -19.375 C 9.710938 -19.375 8.429688 -18.945312 7.359375 -18.09375 C 6.296875 -17.25 5.488281 -16.144531 4.9375 -14.78125 C 4.394531 -13.425781 4.125 -12.015625 4.125 -10.546875 C 4.125 -9.035156 4.398438 -7.519531 4.953125 -6 C 5.503906 -4.476562 6.34375 -3.21875 7.46875 -2.21875 C 8.601562 -1.21875 9.972656 -0.71875 11.578125 -0.71875 Z M 11.578125 -0.71875 "/></g></g></g><g fill="#000000" fill-opacity="1"><g transform="translate(386.523994, 266.723486)"><g><path d="M 1.578125 -0.953125 C 2.242188 -0.960938 2.71875 -1.109375 3 -1.390625 C 3.289062 -1.679688 3.453125 -2.023438 3.484375 -2.421875 C 3.523438 -2.816406 3.546875 -3.5 3.546875 -4.46875 L 3.546875 -16.84375 C 3.546875 -17.644531 3.578125 -18.332031 3.640625 -18.90625 L 1.578125 -18.796875 L 1.578125 -20.0625 L 8.34375 -20.09375 C 11.925781 -20.101562 14.769531 -19.257812 16.875 -17.5625 C 18.976562 -15.863281 20.03125 -13.34375 20.03125 -10 C 20.03125 -8.207031 19.609375 -6.546875 18.765625 -5.015625 C 17.929688 -3.484375 16.691406 -2.265625 15.046875 -1.359375 C 13.398438 -0.453125 11.421875 0 9.109375 0 L 1.578125 0 Z M 9.03125 -1.09375 C 10.632812 -1.09375 12.054688 -1.484375 13.296875 -2.265625 C 14.535156 -3.046875 15.5 -4.125 16.1875 -5.5 C 16.875 -6.875 17.21875 -8.410156 17.21875 -10.109375 C 17.21875 -12.898438 16.453125 -15.082031 14.921875 -16.65625 C 13.398438 -18.238281 11.101562 -19.03125 8.03125 -19.03125 C 7.351562 -19.03125 6.867188 -18.894531 6.578125 -18.625 C 6.296875 -18.351562 6.132812 -18.019531 6.09375 -17.625 C 6.0625 -17.238281 6.046875 -16.5625 6.046875 -15.59375 L 6.046875 -3.375 C 6.046875 -2.382812 6.015625 -1.640625 5.953125 -1.140625 C 6.628906 -1.109375 7.65625 -1.09375 9.03125 -1.09375 Z M 9.03125 -1.09375 "/></g></g></g><g fill="#000000" fill-opacity="1"><g transform="translate(430.791722, 266.723486)"><g><path d="M 1.578125 -0.953125 C 2.242188 -0.960938 2.71875 -1.109375 3 -1.390625 C 3.289062 -1.679688 3.453125 -2.023438 3.484375 -2.421875 C 3.523438 -2.816406 3.546875 -3.5 3.546875 -4.46875 L 3.546875 -16.84375 C 3.546875 -17.644531 3.578125 -18.332031 3.640625 -18.90625 L 1.578125 -18.796875 L 1.578125 -20.0625 L 15.359375 -20.0625 L 15.5 -15.046875 L 14.5625 -15.046875 C 14.5625 -16.609375 14.21875 -17.675781 13.53125 -18.25 C 12.851562 -18.820312 11.90625 -19.09375 10.6875 -19.0625 L 8.21875 -19 C 7.53125 -18.976562 7.035156 -18.847656 6.734375 -18.609375 C 6.429688 -18.367188 6.238281 -18.035156 6.15625 -17.609375 C 6.082031 -17.179688 6.046875 -16.507812 6.046875 -15.59375 L 6.046875 -11 L 11.4375 -10.96875 L 11.234375 -13.4375 L 12.5 -13.4375 L 12.5 -7.421875 L 11.546875 -7.421875 C 11.546875 -8.128906 11.457031 -8.664062 11.28125 -9.03125 C 11.113281 -9.40625 10.851562 -9.65625 10.5 -9.78125 C 10.144531 -9.90625 9.65625 -9.96875 9.03125 -9.96875 L 8.140625 -9.9375 L 6.046875 -9.859375 L 6.046875 -3.296875 C 6.046875 -2.304688 6.015625 -1.5625 5.953125 -1.0625 L 11.4375 -1.140625 C 12.769531 -1.160156 13.789062 -1.5 14.5 -2.15625 C 15.207031 -2.820312 15.5625 -3.96875 15.5625 -5.59375 L 16.53125 -5.59375 L 16.359375 0 L 1.578125 0 Z M 1.578125 -0.953125 "/></g></g></g><g fill="#000000" fill-opacity="1"><g transform="translate(471.535492, 266.723486)"><g><path d="M 14.5625 -10.03125 L 14.5625 -8.109375 L 1.8125 -2.4375 L 1.8125 -4.21875 L 12.609375 -8.96875 L 1.8125 -13.765625 L 1.8125 -15.59375 Z M 14.5625 -10.03125 "/></g></g></g><g fill="#8c52ff" fill-opacity="1"><g transform="translate(522.811697, 326.613757)"><g><path d="M 55.21875 -90.347656 C 35.269531 -90.347656 5.621094 -77.984375 5.621094 -60.136719 C 5.621094 -53.535156 9.976562 -48.054688 14.472656 -48.054688 C 14.472656 -61.121094 33.863281 -74.191406 50.722656 -78.546875 C 40.1875 -67.867188 16.859375 -24.308594 16.859375 -12.222656 C 16.859375 -6.746094 21.359375 -2.527344 24.589844 -1.40625 C 27.539062 4.214844 32.878906 8.992188 41.871094 8.992188 C 65.476562 8.992188 94.84375 -22.621094 94.84375 -50.863281 C 94.84375 -71.238281 79.527344 -90.347656 55.21875 -90.347656 Z M 38.078125 -2.667969 C 32.597656 -2.667969 30.210938 -6.324219 30.210938 -10.398438 C 30.210938 -10.820312 30.210938 -11.382812 30.351562 -11.804688 C 35.96875 -28.242188 50.582031 -58.453125 63.371094 -73.347656 C 63.792969 -73.628906 63.933594 -74.050781 63.933594 -74.609375 C 63.933594 -76.15625 62.105469 -78.546875 59.578125 -79.949219 L 61.261719 -79.949219 C 76.015625 -79.949219 83.464844 -70.816406 83.464844 -58.3125 C 83.464844 -34.144531 55.5 -2.667969 38.078125 -2.667969 Z M 38.078125 -2.667969 "/></g></g></g><g fill="#8c52ff" fill-opacity="1"><g transform="translate(613.012282, 326.613757)"><g><path d="M 31.472656 8.992188 C 49.320312 8.992188 72.503906 -4.355469 91.894531 -33.582031 C 91.894531 -35.550781 89.363281 -37.234375 87.960938 -37.234375 C 75.03125 -18.40625 51.847656 -2.109375 30.632812 -2.109375 C 21.777344 -2.109375 17.984375 -5.199219 17.984375 -9.835938 C 17.984375 -22.480469 42.292969 -33.863281 60.699219 -35.269531 C 62.386719 -34.566406 63.511719 -37.09375 63.511719 -39.90625 C 63.511719 -43.136719 62.246094 -46.929688 59.15625 -47.492188 C 56.34375 -47.070312 52.410156 -46.507812 48.757812 -46.507812 C 42.574219 -46.507812 36.8125 -47.914062 36.8125 -53.394531 C 36.8125 -65.757812 61.542969 -78.6875 76.71875 -78.6875 C 81.074219 -78.6875 82.902344 -77.5625 82.902344 -75.875 C 82.902344 -72.222656 75.03125 -65.757812 67.726562 -60.980469 C 68.710938 -60.136719 70.253906 -59.71875 72.082031 -59.71875 C 79.667969 -59.71875 92.316406 -65.617188 92.316406 -73.628906 C 92.316406 -80.230469 83.042969 -89.644531 70.253906 -89.644531 C 53.394531 -89.644531 24.167969 -75.03125 24.167969 -56.625 C 24.167969 -49.882812 29.226562 -44.121094 37.234375 -41.871094 L 37.234375 -40.886719 C 18.40625 -36.109375 5.339844 -26.695312 5.339844 -13.066406 C 5.339844 -0.5625 17 8.992188 31.472656 8.992188 Z M 31.472656 8.992188 "/></g></g></g><g fill="#8c52ff" fill-opacity="1"><g transform="translate(686.212443, 326.613757)"><g><path d="M 41.589844 5.902344 C 43.136719 5.902344 44.402344 5.621094 45.105469 4.917969 C 66.039062 -14.472656 105.804688 -65.195312 105.804688 -81.636719 C 105.804688 -86.835938 99.199219 -90.207031 95.546875 -90.207031 C 94.5625 -90.207031 93.859375 -89.925781 93.578125 -89.363281 C 93.578125 -71.941406 59.4375 -23.042969 42.996094 -4.214844 L 41.730469 -4.636719 C 52.269531 -29.789062 59.296875 -59.15625 59.296875 -69.414062 C 59.296875 -79.949219 50.722656 -87.960938 39.765625 -87.960938 C 21.777344 -87.960938 4.074219 -66.742188 4.074219 -52.691406 C 4.074219 -45.386719 9.695312 -39.90625 15.316406 -39.90625 C 15.316406 -58.453125 34.566406 -80.371094 42.574219 -80.371094 C 44.824219 -80.371094 45.804688 -78.6875 45.804688 -74.46875 C 45.804688 -63.652344 39.765625 -33.441406 28.242188 -4.917969 C 27.820312 -4.214844 27.679688 -3.511719 27.679688 -2.808594 C 27.679688 1.828125 36.25 5.902344 41.589844 5.902344 Z M 41.589844 5.902344 "/></g></g></g></svg>