<svg xmlns="http://www.w3.org/2000/svg" xmlns:xlink="http://www.w3.org/1999/xlink" width="15" zoomAndPan="magnify" viewBox="0 0 810 809.999993" height="15" preserveAspectRatio="xMidYMid meet" version="1.0"><path fill="#4b98ff" d="M 810 720 C 810 769.703125 769.703125 810 720 810 L 90 810 C 40.296875 810 0 769.703125 0 720 L 0 90 C 0 40.296875 40.296875 0 90 0 L 720 0 C 769.703125 0 810 40.296875 810 90 Z M 810 720 " fill-opacity="1" fill-rule="nonzero"/><path fill="#ffffff" d="M 658.800781 143.144531 C 632.789062 126.246094 597.960938 133.648438 580.996094 159.703125 L 336.058594 537.234375 L 222.90625 432.609375 C 200.09375 411.503906 164.496094 412.921875 143.414062 435.710938 C 122.332031 458.527344 123.726562 494.121094 146.542969 515.203125 L 308.746094 665.191406 C 319.546875 675.203125 333.269531 680.152344 346.90625 680.152344 C 362.046875 680.152344 381.421875 673.808594 394.132812 654.523438 C 401.601562 643.140625 675.382812 220.949219 675.382812 220.949219 C 692.28125 194.871094 684.855469 160.042969 658.800781 143.144531 Z M 658.800781 143.144531 " fill-opacity="1" fill-rule="nonzero"/></svg>