<svg width="160" height="160" viewBox="0 0 160 160" fill="none" xmlns="http://www.w3.org/2000/svg">
<path d="M136.01 23.2606C128.676 15.8555 119.941 9.98501 110.314 5.99149C100.688 1.99797 90.3621 -0.0386082 79.94 0.000554251C36.27 0.000554251 0.68 35.5806 0.64 79.2606C0.64 93.2506 4.3 106.861 11.21 118.911L0 160.001L42.04 148.981C53.6649 155.323 66.6975 158.641 79.94 158.631H79.98C123.66 158.631 159.24 123.051 159.28 79.3306C159.289 68.9112 157.237 58.5929 153.241 48.97C149.246 39.347 143.396 30.6095 136.01 23.2606ZM79.94 145.211C68.1318 145.201 56.5422 142.024 46.38 136.011L43.98 134.571L19.04 141.111L25.7 116.781L24.14 114.271C17.5381 103.774 14.0465 91.6208 14.07 79.2206C14.07 42.9606 43.64 13.3806 79.98 13.3806C88.6374 13.365 97.2123 15.0633 105.21 18.3775C113.208 21.6916 120.471 26.5562 126.58 32.6906C132.709 38.802 137.568 46.066 140.877 54.0638C144.186 62.0617 145.879 70.6352 145.86 79.2906C145.82 115.681 116.25 145.211 79.94 145.211ZM116.09 95.8706C114.12 94.8806 104.39 90.0906 102.56 89.4106C100.74 88.7606 99.41 88.4206 98.11 90.4006C96.78 92.3706 92.98 96.8605 91.84 98.1505C90.7 99.4805 89.52 99.6306 87.54 98.6506C85.57 97.6506 79.18 95.5706 71.62 88.8006C65.72 83.5506 61.77 77.0506 60.59 75.0806C59.45 73.1006 60.48 72.0406 61.47 71.0506C62.34 70.1706 63.44 68.7306 64.43 67.5906C65.43 66.4506 65.76 65.6106 66.41 64.2906C67.06 62.9506 66.75 61.8106 66.26 60.8206C65.76 59.8306 61.81 50.0606 60.14 46.1206C58.54 42.2306 56.91 42.7706 55.69 42.7206C54.55 42.6506 53.22 42.6506 51.89 42.6506C50.8857 42.6761 49.8976 42.9087 48.9873 43.3337C48.0771 43.7587 47.2643 44.367 46.6 45.1206C44.78 47.1006 39.69 51.8906 39.69 61.6606C39.69 71.4306 46.79 80.8206 47.79 82.1506C48.77 83.4806 61.73 103.471 81.62 112.071C86.32 114.121 90.02 115.331 92.91 116.251C97.66 117.771 101.95 117.541 105.37 117.051C109.17 116.471 117.08 112.251 118.75 107.621C120.39 102.981 120.39 99.0206 119.89 98.1906C119.4 97.3506 118.07 96.8606 116.09 95.8706Z" fill="#07306E"/>
</svg>
