<svg width="160" height="158" viewBox="0 0 38 32" fill="none" xmlns="http://www.w3.org/2000/svg">
<path d="M11.9368 31.625C26.277 31.625 34.1216 19.7429 34.1216 9.45675C34.1216 9.12425 34.1216 8.787 34.1074 8.4545C35.6346 7.3489 36.9528 5.98011 38 4.41225C36.5734 5.04127 35.0616 5.45584 33.5136 5.6425C35.1441 4.66789 36.3653 3.13442 36.9502 1.32712C35.4183 2.23467 33.7417 2.87176 31.9936 3.2105C30.8184 1.95893 29.2633 1.1298 27.5692 0.851547C25.8751 0.573292 24.1365 0.861437 22.6227 1.67135C21.1089 2.48126 19.9044 3.76774 19.1958 5.33152C18.4872 6.89529 18.314 8.64909 18.7031 10.3212C15.6031 10.1658 12.5704 9.36049 9.80173 7.95751C7.03302 6.55454 4.59013 4.58525 2.6315 2.17737C1.63718 3.8947 1.33374 5.92608 1.78278 7.85901C2.23183 9.79194 3.39971 11.4815 5.04925 12.5846C3.81316 12.5426 2.60424 12.2107 1.52 11.6156V11.7225C1.52213 13.5215 2.14535 15.2646 3.28433 16.6572C4.4233 18.0497 6.00815 19.0063 7.771 19.3653C7.10187 19.5496 6.41067 19.6415 5.71663 19.6384C5.22734 19.6399 4.73903 19.5945 4.25838 19.503C4.75662 21.0516 5.72677 22.4056 7.03296 23.3754C8.33915 24.3451 9.91594 24.882 11.5425 24.9109C8.77932 27.0812 5.36608 28.2582 1.8525 28.2525C1.23339 28.2551 0.614705 28.2194 0 28.1456C3.5661 30.4191 7.70758 31.6263 11.9368 31.625Z" fill="#07306E"/>
</svg>
